<?xml version="1.0" encoding="UTF-8" standalone="no"?><!-- Generator: Gravit.io --><svg xmlns="http://www.w3.org/2000/svg" xmlns:xlink="http://www.w3.org/1999/xlink" style="isolation:isolate" viewBox="0 0 150 150" width="150pt" height="150pt"><defs><clipPath id="_clipPath_WacqFiKZU52av1pU0VdKqUtY9YHl77zh"><rect width="150" height="150"/></clipPath></defs><g clip-path="url(#_clipPath_WacqFiKZU52av1pU0VdKqUtY9YHl77zh)"><path d=" M 102.699 85.013 L 60.24 109.527 L 17.78 134.041 C 8.209 139.567 0.438 135.08 0.438 124.028 L 0.438 75 L 0.438 25.972 C 0.438 14.92 8.209 10.433 17.78 15.959 L 60.24 40.473 L 102.699 64.987 C 112.271 70.513 112.271 79.487 102.699 85.013 Z " fill="rgb(34,97,198)"/><path d=" M 122.692 84.89 L 80.02 109.527 L 37.348 134.163 C 27.893 139.622 20.218 135.19 20.218 124.273 L 20.218 75 L 20.218 25.727 C 20.218 14.81 27.893 10.378 37.348 15.837 L 80.02 40.473 L 122.692 65.11 C 132.146 70.568 132.146 79.432 122.692 84.89 Z " fill="rgb(34,97,198)" fill-opacity="0.62"/><path d=" M 142.472 84.89 L 99.8 109.527 L 57.128 134.163 C 47.673 139.622 39.998 135.19 39.998 124.273 L 39.998 75 L 39.998 25.727 C 39.998 14.81 47.673 10.378 57.128 15.837 L 99.8 40.473 L 142.472 65.11 C 151.926 70.568 151.926 79.432 142.472 84.89 Z " fill="rgb(34,97,198)" fill-opacity="0.25"/></g></svg>